<svg xmlns="http://www.w3.org/2000/svg" viewBox="0 0 32 32" width="32" height="32">
  <defs>
    <linearGradient id="tiffany-fav" x1="0%" y1="0%" x2="100%" y2="100%">
      <stop offset="0%" stop-color="#A0E2D6"/>
      <stop offset="100%" stop-color="#4A9E91"/>
    </linearGradient>
    <linearGradient id="gold-fav" x1="0%" y1="0%" x2="100%" y2="0%">
      <stop offset="0%" stop-color="#DCC59A"/>
      <stop offset="100%" stop-color="#C9A96E"/>
    </linearGradient>
  </defs>

  <!-- Background circle -->
  <circle cx="16" cy="16" r="15" fill="url(#tiffany-fav)"/>
  <circle cx="16" cy="16" r="14.5" fill="none" stroke="#F5EDE3" stroke-width="0.5" opacity="0.4"/>

  <!-- Stylized letter "А" -->
  <path d="M10.5,24 L13.5,10 L16,10 L18.5,24 L16.5,24 L16,21 L13,21 L12.5,24 Z M13.7,18.5 L15.3,18.5 L14.5,14 Z" fill="#FDFBF9" stroke="#FDFBF9" stroke-width="0.3" stroke-linejoin="round"/>

  <!-- Small heart decoration in upper right -->
  <path d="M21,9 C21,7.5 19,6.5 18.5,8 C18,9.5 19.5,12 20,12.5 C20.5,12 22,9.5 21.5,8 C21,6.5 19,7.5 21,9Z" fill="#C9A96E" opacity="0.8"/>

  <!-- Small sparkle dots -->
  <circle cx="8" cy="8" r="0.8" fill="#F5EDE3" opacity="0.5"/>
  <circle cx="24" cy="22" r="0.6" fill="#F5EDE3" opacity="0.4"/>
</svg>
